<svg width="30" height="24" viewBox="0 0 30 24" xmlns="http://www.w3.org/2000/svg"><g fill="none" fill-rule="evenodd"><g transform="translate(15.41 6.364)" fill="#2F297F" fill-rule="nonzero"><path d="M1.47725582,11.6362305 L2.64769697,8.34081364 L7.35218859,8.34081364 L8.52262974,11.6362305 L9.99988556,11.6362305 L5.72720718,0 L4.27267838,0 L0,11.6362305 L1.47725582,11.6362305 Z M3.09087372,7.09082794 L4.95448875,1.84088802 L5.0453968,1.84088802 L6.90901184,7.09082794 L3.09087372,7.09082794 Z"/><polygon points="13.2272452 0 11.8181704 0 11.8181704 11.6362305 13.2272452 11.6362305"/></g><path d="M6.5 4C7.61111111 7.88888889 7.61111111 7.88888889 11.5 9 7.61111111 10.1111111 7.61111111 10.1111111 6.5 14 5.38888889 10.1111111 5.38888889 10.1111111 1.5 9 5.38888889 7.88888889 5.38888889 7.88888889 6.5 4ZM10 0C10.7777778 2.72222222 10.7777778 2.72222222 13.5 3.5 10.7777778 4.27777778 10.7777778 4.27777778 10 7 9.22222222 4.27777778 9.22222222 4.27777778 6.5 3.5 9.22222222 2.72222222 9.22222222 2.72222222 10 0ZM2.5 2.5C3.05555556 4.44444444 3.05555556 4.44444444 5 5 3.05555556 5.55555556 3.05555556 5.55555556 2.5 7.5 1.94444444 5.55555556 1.94444444 5.55555556 0 5 1.94444444 4.44444444 1.94444444 4.44444444 2.5 2.5Z" transform="translate(.5 5)" fill="#2F297F"/></g></svg>