<svg width="24" height="24" viewBox="0 0 24 24" xmlns="http://www.w3.org/2000/svg"><g transform="translate(.5 5)" fill="#B13615"><path d="M11,0 C13.7397024,0 16.0835168,1.69499808 17.0399883,4.09353941 C17.3498624,4.03173234 17.6712255,4 18,4 C20.7614237,4 23,6.23857625 23,9 C23,11.7614237 20.7614237,14 18,14 L16.5,14 L16.5,12.75 L18,12.75 C20.0710678,12.75 21.75,11.0710678 21.75,9 C21.75,6.92893219 20.0710678,5.25 18,5.25 C17.7545251,5.25 17.5149975,5.27341707 17.2844954,5.31939271 L16.2642513,5.52288923 L15.8789015,4.55654853 C15.0892663,2.57638229 13.1682064,1.25 11,1.25 C8.24081905,1.25 5.95681648,3.38660303 5.76357526,6.12117576 L5.67022489,7.44218472 L4.35679949,7.27279555 C4.23940502,7.25765548 4.12034633,7.25 4,7.25 C2.48121694,7.25 1.25,8.48121694 1.25,10 C1.25,11.5187831 2.48121694,12.75 4,12.75 L6.5,12.75 L6.5,14 L4,14 C1.790861,14 0,12.209139 0,10 C0,7.790861 1.790861,6 4,6 C4.17508328,6 4.34753926,6.01124877 4.51668467,6.03306303 C4.75489947,2.66206543 7.56657039,0 11,0 Z"/><polygon transform="matrix(1 0 0 -1 0 25.958)" points="11.5 10.816117 11.9419417 11.2580587 14.9419417 14.2580587 14.0580583 15.1419422 11.5 12.5830005 8.94194174 15.1419422 8.05805826 14.2580587"/><polygon points="10.875 6 10.875 14 12.125 14 12.125 6"/></g></svg>