<?xml version="1.0" encoding="UTF-8"?>
<svg width="376px" height="158px" viewBox="0 0 376 158" version="1.1"
  xmlns="http://www.w3.org/2000/svg" xmlns:xlink="http://www.w3.org/1999/xlink">
  <g id="generating" stroke="none" stroke-width="1" fill="none" fill-rule="evenodd">
    <path
      d="M175,67 C181.666667,90.3333333 181.666667,90.3333333 205,97 C181.666667,103.666667 181.666667,103.666667 175,127 C168.333333,103.666667 168.333333,103.666667 145,97 C168.333333,90.3333333 168.333333,90.3333333 175,67 Z"
      id="Path-5" fill="#2F297F"></path>
    <path
      d="M91,21 C97.6666667,44.3333333 97.6666667,44.3333333 121,51 C97.6666667,57.6666667 97.6666667,57.6666667 91,81 C84.3333333,57.6666667 84.3333333,57.6666667 61,51 C84.3333333,44.3333333 84.3333333,44.3333333 91,21 Z"
      id="Path-5" fill="#2F297F"></path>
    <path
      d="M260,49 C266.666667,72.3333333 266.666667,72.3333333 290,79 C266.666667,85.6666667 266.666667,85.6666667 260,109 C253.333333,85.6666667 253.333333,85.6666667 230,79 C253.333333,72.3333333 253.333333,72.3333333 260,49 Z"
      id="Path-5" fill="#2F297F"></path>
    <path
      d="M206,33 C210.666667,49.3333333 210.666667,49.3333333 227,54 C210.666667,58.6666667 210.666667,58.6666667 206,75 C201.333333,58.6666667 201.333333,58.6666667 185,54 C201.333333,49.3333333 201.333333,49.3333333 206,33 Z"
      id="Path-5" fill="#2F297F"></path>
    <path
      d="M40,58 C44.6666667,74.3333333 44.6666667,74.3333333 61,79 C44.6666667,83.6666667 44.6666667,83.6666667 40,100 C35.3333333,83.6666667 35.3333333,83.6666667 19,79 C35.3333333,74.3333333 35.3333333,74.3333333 40,58 Z"
      id="Path-5" fill="#2F297F"></path>
    <path
      d="M298,25 C302.666667,41.3333333 302.666667,41.3333333 319,46 C302.666667,50.6666667 302.666667,50.6666667 298,67 C293.333333,50.6666667 293.333333,50.6666667 277,46 C293.333333,41.3333333 293.333333,41.3333333 298,25 Z"
      id="Path-5" fill="#2F297F"></path>
    <path
      d="M308,82 C312.666667,98.3333333 312.666667,98.3333333 329,103 C312.666667,107.666667 312.666667,107.666667 308,124 C303.333333,107.666667 303.333333,107.666667 287,103 C303.333333,98.3333333 303.333333,98.3333333 308,82 Z"
      id="Path-5" fill="#2F297F"></path>
    <path
      d="M121,97 C125.666667,113.333333 125.666667,113.333333 142,118 C125.666667,122.666667 125.666667,122.666667 121,139 C116.333333,122.666667 116.333333,122.666667 100,118 C116.333333,113.333333 116.333333,113.333333 121,97 Z"
      id="Path-5" fill="#2F297F"></path>
    <path
      d="M142,51 C145.333333,62.6666667 145.333333,62.6666667 157,66 C145.333333,69.3333333 145.333333,69.3333333 142,81 C138.666667,69.3333333 138.666667,69.3333333 127,66 C138.666667,62.6666667 138.666667,62.6666667 142,51 Z"
      id="Path-5" fill="#2F297F"></path>
    <path
      d="M74,94 C77.3333333,105.666667 77.3333333,105.666667 89,109 C77.3333333,112.333333 77.3333333,112.333333 74,124 C70.6666667,112.333333 70.6666667,112.333333 59,109 C70.6666667,105.666667 70.6666667,105.666667 74,94 Z"
      id="Path-5" fill="#2F297F"></path>
    <path
      d="M220,97 C223.333333,108.666667 223.333333,108.666667 235,112 C223.333333,115.333333 223.333333,115.333333 220,127 C216.666667,115.333333 216.666667,115.333333 205,112 C216.666667,108.666667 216.666667,108.666667 220,97 Z"
      id="Path-5" fill="#2F297F"></path>
    <path
      d="M340,61 C343.333333,72.6666667 343.333333,72.6666667 355,76 C343.333333,79.3333333 343.333333,79.3333333 340,91 C336.666667,79.3333333 336.666667,79.3333333 325,76 C336.666667,72.6666667 336.666667,72.6666667 340,61 Z"
      id="Path-5" fill="#2F297F"></path>
  </g>
</svg>