<svg width="22" height="24" viewBox="0 0 22 24" xmlns="http://www.w3.org/2000/svg"><g fill="none" fill-rule="evenodd"><path d="M19,7.5 C20.3807119,7.5 21.5,8.61928813 21.5,10 L21.5,16 C21.5,17.3807119 20.3807119,18.5 19,18.5 L18,18.5 L18,17.5 L19,17.5 C19.8284271,17.5 20.5,16.8284271 20.5,16 L20.5,10 C20.5,9.17157288 19.8284271,8.5 19,8.5 L3,8.5 C2.17157288,8.5 1.5,9.17157288 1.5,10 L1.5,16 C1.5,16.8284271 2.17157288,17.5 3,17.5 L4,17.5 L4,18.5 L3,18.5 C1.61928813,18.5 0.5,17.3807119 0.5,16 L0.5,10 C0.5,8.61928813 1.61928813,7.5 3,7.5 L19,7.5 Z" fill="#000000" fill-rule="nonzero"/><circle fill="#000000" cx="18" cy="11" r="1"/><path d="M16.5,13.5 L16.5,18 C16.5,19.3807119 15.3807119,20.5 14,20.5 L8,20.5 C6.61928813,20.5 5.5,19.3807119 5.5,18 L5.5,13.5 L16.5,13.5 Z M15.5,14.5 L6.5,14.5 L6.5,18 C6.5,18.7796961 7.09488808,19.4204487 7.85553999,19.4931334 L8,19.5 L14,19.5 C14.8284271,19.5 15.5,18.8284271 15.5,18 L15.5,14.5 Z" fill="#000000" fill-rule="nonzero"/><path d="M6.5,4 C6.5,4.82842712 7.17157288,5.5 8,5.5 L14,5.5 C14.8284271,5.5 15.5,4.82842712 15.5,4 L16.5,4 C16.5,5.38071187 15.3807119,6.5 14,6.5 L8,6.5 C6.61928813,6.5 5.5,5.38071187 5.5,4 L6.5,4 Z" fill="#000000" fill-rule="nonzero" transform="rotate(-180 11 5.25)"/></g></svg>