<svg width="24" height="24" viewBox="0 0 24 24" xmlns="http://www.w3.org/2000/svg"><path d="M18.9941022,11.6787117 C19.1449285,14.8944993 17.0487112,17.8941352 13.8117333,18.7614808 C11.0184983,19.5099259 8.16702082,18.4586227 6.48850533,16.3184075 L5.99706953,18.85159 L4.77003555,18.6130788 L5.69882518,13.8348703 L6.31234217,13.954126 L10.4770336,14.76366 L10.2385224,15.990694 L7.38861908,15.4373377 C8.75483227,17.2690424 11.1464389,18.181549 13.4882095,17.5540735 C16.0545335,16.8664291 17.74795,14.5471609 17.7514218,12.0114193 L18.9941022,11.6787117 Z M17.5122236,7.68252203 L18.0029305,5.14840999 L19.2299645,5.38692123 L18.3011748,10.1651297 L17.6876578,10.045874 L13.5229664,9.23634002 L13.7614776,8.00930604 L16.6115583,8.56290021 C15.2453748,6.73103657 12.8536625,5.81842379 10.5117905,6.4459265 C7.94581792,7.13347678 6.25251377,9.45220394 6.24857976,11.9875391 L5.00585,12.3202669 C4.85551534,9.10486554 6.95163148,6.105773 10.1882667,5.23851922 C12.9819061,4.48996579 15.8338048,5.5416817 17.5122236,7.68252203 Z" fill="#000000"/></svg>